<svg xmlns="http://www.w3.org/2000/svg" viewBox="0 0 700 1245" width="700" height="1245">
  <rect width="700" height="1245" fill="#0a0e1a"/>
  <style>
    .t{fill:#e8f0f8;font-family:sans-serif;font-size:28px;font-weight:bold}
    .s{fill:none;stroke:#6fd6ff;stroke-width:3;stroke-linecap:round;stroke-linejoin:round}
    .d{fill:#ffd166;stroke:none}
    .lb{fill:#cfe0ef;font-family:sans-serif;font-size:14px;text-anchor:middle}
  </style>

  <text x="350" y="44" class="t" text-anchor="middle">基础自创词 · 星符表（50）</text>

  <defs>
    <g id="b_sema"><path class="s" d="M8 60 C20 36 28 36 38 60 C48 84 56 84 66 60 C76 36 84 36 94 60 C102 80 110 80 116 60"/><circle class="d" cx="66" cy="60" r="4"/></g>
    <g id="b_ena"><circle class="d" cx="60" cy="42" r="6"/><path class="s" d="M50 84 L60 54 L70 84"/></g>
    <g id="b_anu"><circle class="d" cx="64" cy="50" r="6"/><path class="s" d="M58 54 C44 52 34 60 38 76"/></g>
    <g id="b_kopo"><ellipse class="s" cx="60" cy="60" rx="22" ry="32"/></g>
    <g id="b_veva"><circle class="d" cx="60" cy="74" r="6"/><path class="s" d="M60 68 C60 52 66 42 78 40"/></g>
    <g id="b_uvo"><path class="s" d="M60 40 Q72 60 60 78 Q48 60 60 40 Z"/></g>
    <g id="b_tena"><path class="s" d="M30 60 H90"/><path class="s" d="M48 60 Q60 74 72 60"/></g>
    <g id="b_kela"><path class="s" d="M40 74 L80 74 L60 42 Z"/></g>
    <g id="b_bena"><path class="s" d="M36 60 L54 78 L84 42"/></g>
    <g id="b_malu"><path class="s" d="M40 44 L80 76 M80 44 L40 76"/></g>
    <g id="b_mola"><circle class="d" cx="44" cy="48" r="4"/><circle class="d" cx="72" cy="44" r="4"/><circle class="d" cx="58" cy="76" r="4"/></g>
    <g id="b_ala"><circle class="d" cx="60" cy="60" r="28"/></g>
    <g id="b_ni"><circle class="d" cx="60" cy="46" r="5"/><circle class="d" cx="60" cy="74" r="5"/></g>
    <g id="b_vega"><circle class="d" cx="40" cy="60" r="5"/><path class="s" d="M47 60 C56 48 60 72 68 60 C74 50 80 66 88 58"/></g>
    <g id="b_mira"><ellipse class="s" cx="54" cy="60" rx="26" ry="16"/><circle class="d" cx="54" cy="60" r="5"/><path class="s" d="M80 60 H100"/></g>
    <g id="b_kefa"><circle class="d" cx="60" cy="72" r="5"/><path class="s" d="M48 54 Q60 42 72 54"/><path class="s" d="M42 62 Q60 50 78 62"/></g>
    <g id="b_lova"><path class="s" d="M60 76 C38 56 34 36 46 32 C54 29 60 34 60 40 C60 34 66 29 74 32 C86 36 82 56 60 76 Z"/></g>
    <g id="b_dona"><circle class="d" cx="40" cy="60" r="5"/><circle class="d" cx="80" cy="60" r="5"/><path class="s" d="M46 60 H74"/></g>
    <g id="b_keta"><path class="s" d="M40 66 Q60 84 80 66"/><circle class="d" cx="60" cy="46" r="5"/></g>
    <g id="b_vira"><circle class="d" cx="60" cy="44" r="5"/><circle class="s" cx="60" cy="68" r="16"/></g>
    <g id="b_seva"><path class="s" d="M36 68 Q60 88 84 68"/><circle class="d" cx="48" cy="50" r="4"/><circle class="d" cx="72" cy="50" r="4"/></g>
    <g id="b_pela"><path class="s" d="M86 60 Q50 40 36 60"/></g>
    <g id="b_inta"><path class="s" d="M44 46 V70 Q44 84 60 84 Q76 84 76 70 V46"/><circle class="d" cx="60" cy="64" r="5"/></g>
    <g id="b_veta"><path class="s" d="M44 40 Q68 60 44 80"/><circle class="d" cx="80" cy="60" r="5"/></g>
    <g id="b_supa"><path class="s" d="M60 84 V40 M48 52 L60 40 L72 52"/></g>
    <g id="b_suba"><path class="s" d="M60 36 V80 M48 68 L60 80 L72 68"/></g>
    <g id="b_pota"><path class="s" d="M40 64 H80 M60 64 V40"/></g>
    <g id="b_nesa"><path class="s" d="M40 52 Q60 82 80 52"/><circle class="d" cx="52" cy="62" r="4"/><circle class="d" cx="68" cy="62" r="4"/></g>
    <g id="b_heva"><path class="s" d="M28 52 Q36 42 44 52"/><path class="s" d="M40 60 Q48 50 56 60"/><path class="s" d="M52 68 Q60 58 68 68"/></g>
    <g id="b_fela"><circle class="d" cx="60" cy="60" r="7"/><circle class="d" cx="38" cy="60" r="4"/><circle class="d" cx="82" cy="60" r="4"/></g>
    <g id="b_noma"><circle class="d" cx="56" cy="52" r="5"/><path class="s" d="M66 60 L84 76"/></g>
    <g id="b_kosa"><path class="s" d="M60 36 L82 60 L60 84 L38 60 Z"/></g>
    <g id="b_pala"><path class="s" d="M30 76 L60 44 L90 60"/></g>
    <g id="b_kolo"><circle class="d" cx="60" cy="48" r="5"/><path class="s" d="M50 58 L42 80 M70 58 L78 80"/></g>
    <g id="b_fora"><path class="s" d="M60 36 V84 M48 46 H72 M48 74 H72"/></g>
    <g id="b_paka"><path class="s" d="M28 58 H92"/><path class="s" d="M52 64 Q60 70 68 64"/></g>
    <g id="b_wela"><path class="s" d="M30 60 H64 M56 48 L68 60 L56 72"/><path class="s" d="M90 60 H56 M64 48 L52 60 L64 72"/></g>
    <g id="b_fera"><circle class="d" cx="60" cy="60" r="5"/><path class="s" d="M42 44 L50 36 M78 44 L70 36 M32 60 L24 58 M88 60 L96 58"/></g>
    <g id="b_sama"><circle class="d" cx="44" cy="60" r="6"/><circle class="d" cx="76" cy="60" r="6"/></g>
    <g id="b_domo"><path class="s" d="M36 60 L60 38 L84 60"/><path class="s" d="M36 60 H84"/></g>
    <g id="b_gava"><path class="s" d="M36 48 Q60 80 84 48"/></g>
    <g id="b_sena"><circle class="d" cx="64" cy="52" r="5"/><path class="s" d="M54 60 L38 76"/></g>
    <g id="b_vola"><path class="s" d="M28 70 Q46 44 60 62"/><path class="s" d="M92 70 Q74 44 60 62"/></g>
    <g id="b_rapa"><path class="s" d="M28 50 L60 62 M28 62 L60 74 M28 74 L60 86"/></g>
    <g id="b_lena"><path class="s" d="M24 64 Q60 52 96 64"/><circle class="d" cx="60" cy="70" r="4"/></g>
    <g id="b_dama"><circle class="d" cx="60" cy="60" r="26"/><path class="s" d="M36 60 H84"/></g>
    <g id="b_rufa"><circle class="d" cx="60" cy="66" r="5"/><path class="s" d="M44 48 Q60 32 76 48"/></g>
    <g id="b_laja"><circle class="d" cx="60" cy="54" r="5"/><path class="s" d="M44 72 Q60 88 76 72"/></g>
    <g id="b_aka"><path class="s" d="M70 32 A28 28 0 0 1 70 88"/></g>
    <g id="b_koma"><circle class="d" cx="36" cy="44" r="5"/><path class="s" d="M42 48 C56 62 70 72 88 82"/></g>
  </defs>

  <g transform="translate(32,100) scale(0.72)"><use href="#b_sema"/></g><text x="75" y="215" class="lb">sema 时间</text>
  <g transform="translate(142,100) scale(0.72)"><use href="#b_ena"/></g><text x="185" y="215" class="lb">ena 人</text>
  <g transform="translate(252,100) scale(0.72)"><use href="#b_anu"/></g><text x="295" y="215" class="lb">anu 动物</text>
  <g transform="translate(362,100) scale(0.72)"><use href="#b_kopo"/></g><text x="405" y="215" class="lb">kopo 身体</text>
  <g transform="translate(472,100) scale(0.72)"><use href="#b_veva"/></g><text x="515" y="215" class="lb">veva 生命</text>
  <g transform="translate(582,100) scale(0.72)"><use href="#b_uvo"/></g><text x="625" y="215" class="lb">uvo 水</text>

  <g transform="translate(32,225) scale(0.72)"><use href="#b_tena"/></g><text x="75" y="340" class="lb">tena 地</text>
  <g transform="translate(142,225) scale(0.72)"><use href="#b_kela"/></g><text x="185" y="340" class="lb">kela 做</text>
  <g transform="translate(252,225) scale(0.72)"><use href="#b_bena"/></g><text x="295" y="340" class="lb">bena 好</text>
  <g transform="translate(362,225) scale(0.72)"><use href="#b_malu"/></g><text x="405" y="340" class="lb">malu 错</text>
  <g transform="translate(472,225) scale(0.72)"><use href="#b_mola"/></g><text x="515" y="340" class="lb">mola 多</text>
  <g transform="translate(582,225) scale(0.72)"><use href="#b_ala"/></g><text x="625" y="340" class="lb">ala 全部</text>

  <g transform="translate(32,350) scale(0.72)"><use href="#b_ni"/></g><text x="75" y="465" class="lb">ni 这/那</text>
  <g transform="translate(142,350) scale(0.72)"><use href="#b_vega"/></g><text x="185" y="465" class="lb">vega 去/动</text>
  <g transform="translate(252,350) scale(0.72)"><use href="#b_mira"/></g><text x="295" y="465" class="lb">mira 看</text>
  <g transform="translate(362,350) scale(0.72)"><use href="#b_kefa"/></g><text x="405" y="465" class="lb">kefa 知/想</text>
  <g transform="translate(472,350) scale(0.72)"><use href="#b_lova"/></g><text x="515" y="465" class="lb">lova 爱</text>
  <g transform="translate(582,350) scale(0.72)"><use href="#b_dona"/></g><text x="625" y="465" class="lb">dona 给</text>

  <g transform="translate(32,475) scale(0.72)"><use href="#b_keta"/></g><text x="75" y="590" class="lb">keta 拿</text>
  <g transform="translate(142,475) scale(0.72)"><use href="#b_vira"/></g><text x="185" y="590" class="lb">vira 有</text>
  <g transform="translate(252,475) scale(0.72)"><use href="#b_seva"/></g><text x="295" y="590" class="lb">seva 说</text>
  <g transform="translate(362,475) scale(0.72)"><use href="#b_pela"/></g><text x="405" y="590" class="lb">pela 过去</text>
  <g transform="translate(472,475) scale(0.72)"><use href="#b_inta"/></g><text x="515" y="590" class="lb">inta 内</text>
  <g transform="translate(582,475) scale(0.72)"><use href="#b_veta"/></g><text x="625" y="590" class="lb">veta 外</text>

  <g transform="translate(32,600) scale(0.72)"><use href="#b_supa"/></g><text x="75" y="715" class="lb">supa 上</text>
  <g transform="translate(142,600) scale(0.72)"><use href="#b_suba"/></g><text x="185" y="715" class="lb">suba 下</text>
  <g transform="translate(252,600) scale(0.72)"><use href="#b_pota"/></g><text x="295" y="715" class="lb">pota 能</text>
  <g transform="translate(362,600) scale(0.72)"><use href="#b_nesa"/></g><text x="405" y="715" class="lb">nesa 需要</text>
  <g transform="translate(472,600) scale(0.72)"><use href="#b_heva"/></g><text x="515" y="715" class="lb">heva 听</text>
  <g transform="translate(582,600) scale(0.72)"><use href="#b_fela"/></g><text x="625" y="715" class="lb">fela 感觉</text>

  <g transform="translate(32,725) scale(0.72)"><use href="#b_noma"/></g><text x="75" y="840" class="lb">noma 名</text>
  <g transform="translate(142,725) scale(0.72)"><use href="#b_kosa"/></g><text x="185" y="840" class="lb">kosa 事物</text>
  <g transform="translate(252,725) scale(0.72)"><use href="#b_pala"/></g><text x="295" y="840" class="lb">pala 路</text>
  <g transform="translate(362,725) scale(0.72)"><use href="#b_kolo"/></g><text x="405" y="840" class="lb">kolo 冷</text>
  <g transform="translate(472,725) scale(0.72)"><use href="#b_fora"/></g><text x="515" y="840" class="lb">fora 强</text>
  <g transform="translate(582,725) scale(0.72)"><use href="#b_paka"/></g><text x="625" y="840" class="lb">paka 平静</text>

  <g transform="translate(32,850) scale(0.72)"><use href="#b_wela"/></g><text x="75" y="965" class="lb">wela 战斗</text>
  <g transform="translate(142,850) scale(0.72)"><use href="#b_fera"/></g><text x="185" y="965" class="lb">fera 害怕</text>
  <g transform="translate(252,850) scale(0.72)"><use href="#b_sama"/></g><text x="295" y="965" class="lb">sama 朋友</text>
  <g transform="translate(362,850) scale(0.72)"><use href="#b_domo"/></g><text x="405" y="965" class="lb">domo 家</text>
  <g transform="translate(472,850) scale(0.72)"><use href="#b_gava"/></g><text x="515" y="965" class="lb">gava 快乐</text>
  <g transform="translate(582,850) scale(0.72)"><use href="#b_sena"/></g><text x="625" y="965" class="lb">sena 旧</text>

  <g transform="translate(32,975) scale(0.72)"><use href="#b_vola"/></g><text x="75" y="1090" class="lb">vola 飞</text>
  <g transform="translate(142,975) scale(0.72)"><use href="#b_rapa"/></g><text x="185" y="1090" class="lb">rapa 快</text>
  <g transform="translate(252,975) scale(0.72)"><use href="#b_lena"/></g><text x="295" y="1090" class="lb">lena 慢</text>
  <g transform="translate(362,975) scale(0.72)"><use href="#b_dama"/></g><text x="405" y="1090" class="lb">dama 漆黑</text>
  <g transform="translate(472,975) scale(0.72)"><use href="#b_rufa"/></g><text x="515" y="1090" class="lb">rufa 红</text>
  <g transform="translate(582,975) scale(0.72)"><use href="#b_laja"/></g><text x="625" y="1090" class="lb">laja 蓝</text>

  <g transform="translate(32,1100) scale(0.72)"><use href="#b_aka"/></g><text x="75" y="1215" class="lb">aka 弧</text>
  <g transform="translate(142,1100) scale(0.72)"><use href="#b_koma"/></g><text x="185" y="1215" class="lb">koma 尾</text>
</svg>
